<?xml version="1.0" encoding="UTF-8"?>
<svg display="none" version="1.1" xmlns="http://www.w3.org/2000/svg">
    <defs>
        <symbol id="icon-edit"
                viewBox="0 0 53.255 53.255"
                style="enable-background:new 0 0 53.255 53.255;"
        >
            <path style="fill:#D75A4A;"
                  d="M39.598,2.343c3.124-3.124,8.19-3.124,11.314,0s3.124,8.19,0,11.314L39.598,2.343z"/>
            <polygon style="fill:#ED8A19;"
                     points="42.426,17.899 16.512,43.814 15.982,48.587 44.548,20.02 44.548,20.02 "/>
            <polygon style="fill:#ED8A19;"
                     points="10.325,42.93 15.098,42.4 41.012,16.485 36.77,12.243 10.855,38.157 "/>
            <polygon style="fill:#ED8A19;"
                     points="35.356,10.829 33.234,8.707 33.234,8.707 4.668,37.273 9.441,36.743 "/>
            <polygon style="fill:#C7CAC7;"
                     points="48.79,15.778 48.79,15.778 50.912,13.657 39.598,2.343 37.476,4.465 37.477,4.465 "/>
            <polygon style="fill:#C7CAC7;" points="36.062,5.879 36.062,5.879 34.648,7.293 34.648,7.293 45.962,18.606 45.962,18.606
	47.376,17.192 47.376,17.192 "/>
            <path style="fill:#FBCE9D;" d="M14.424,44.488l-5.122,0.569c-0.036,0.004-0.073,0.006-0.109,0.006c0,0-0.001,0-0.001,0H9.192H9.192
	c-0.001,0-0.001,0-0.001,0c-0.036,0-0.073-0.002-0.109-0.006c-0.039-0.004-0.071-0.026-0.108-0.035
	c-0.072-0.017-0.141-0.035-0.207-0.067c-0.05-0.024-0.093-0.053-0.138-0.084c-0.057-0.04-0.109-0.083-0.157-0.134
	c-0.038-0.04-0.069-0.081-0.1-0.127c-0.038-0.057-0.069-0.116-0.095-0.181c-0.022-0.054-0.038-0.107-0.05-0.165
	c-0.007-0.032-0.024-0.059-0.028-0.092c-0.004-0.038,0.01-0.073,0.01-0.11c0-0.038-0.014-0.072-0.01-0.11l0.569-5.122l-5.122,0.569
	c-0.037,0.004-0.075,0.006-0.111,0.006c-0.079,0-0.152-0.024-0.227-0.042L0.442,51.399l2.106-2.106c0.391-0.391,1.023-0.391,1.414,0
	s0.391,1.023,0,1.414l-2.106,2.106l12.03-2.864c-0.026-0.109-0.043-0.222-0.03-0.339L14.424,44.488z"/>
            <path style="fill:#38454F;" d="M3.962,49.293c-0.391-0.391-1.023-0.391-1.414,0l-2.106,2.106L0,53.255l1.856-0.442l2.106-2.106
	C4.352,50.316,4.352,49.684,3.962,49.293z"/>
            <polygon style="fill:#F2ECBF;" points="48.79,15.778 37.477,4.465 37.476,4.465 36.062,5.879 36.062,5.879 47.376,17.192
	47.376,17.192 48.79,15.778 "/>
            <path style="fill:#EBBA16;" d="M41.012,16.485L15.098,42.4l-4.773,0.53l0.53-4.773L36.77,12.243l-1.414-1.414L9.441,36.743
	l-4.773,0.53l-1.133,1.133l-0.228,0.957c0.075,0.018,0.147,0.042,0.227,0.042c0.036,0,0.074-0.002,0.111-0.006l5.122-0.569
	l-0.569,5.122c-0.004,0.038,0.01,0.073,0.01,0.11c0,0.038-0.014,0.072-0.01,0.11c0.004,0.033,0.021,0.06,0.028,0.092
	c0.012,0.057,0.029,0.112,0.05,0.165c0.026,0.064,0.057,0.124,0.095,0.181c0.03,0.045,0.063,0.088,0.1,0.127
	c0.047,0.05,0.1,0.094,0.157,0.134c0.044,0.031,0.089,0.061,0.138,0.084c0.065,0.031,0.135,0.05,0.207,0.067
	c0.038,0.009,0.069,0.03,0.108,0.035c0.036,0.004,0.072,0.006,0.109,0.006h0.001h0h0.001h0.001c0,0,0.001,0,0.001,0h0
	c0.035,0,0.072-0.002,0.109-0.006l5.122-0.569l-0.569,5.122c-0.013,0.118,0.004,0.23,0.03,0.339l0.963-0.229l1.133-1.132l0.53-4.773
	l25.914-25.915L41.012,16.485z"/>
            <polygon style="fill:#F2ECBF;" points="45.962,18.606 34.648,7.293 34.648,7.293 33.234,8.707 33.234,8.707 35.356,10.829
	36.77,12.243 41.012,16.485 42.426,17.899 44.548,20.02 44.548,20.02 45.962,18.606 "/>
            <g>
            </g>
            <g>
            </g>
            <g>
            </g>
            <g>
            </g>
            <g>
            </g>
            <g>
            </g>
            <g>
            </g>
            <g>
            </g>
            <g>
            </g>
            <g>
            </g>
            <g>
            </g>
            <g>
            </g>
            <g>
            </g>
            <g>
            </g>
            <g>
            </g>
        </symbol>
        <symbol id="icon-layer-1"
                enable-background="new 0 0 512 512"
                height="100%"
                viewBox="0 0 512 512" width="100%">
            <path
                    d="m278.068 27.55c-9.959 0-19.204 3.035-26.861 8.222 2.773 7.613 4.213 16.379 4.213 26.214v14.09c41.374 9.204 70.474 33.612 70.474 79.918v-80.806c0-26.31-21.413-47.638-47.826-47.638z"
                    fill="#3d5959"/>
            <path
                    d="m211.64 71.689c15.895 0 31.028 1.455 44.78 4.611v-14.313c0-39.306-22.606-61.987-62.066-61.987h-25.518c-39.462 0-71.451 31.864-71.451 71.17v84.825c0-61.398 51.152-84.306 114.255-84.306z"
                    fill="#537982"/>
            <path
                    d="m129.932 91.43v-20.26c0-38.254 30.304-69.449 68.304-71.09-1.276-.051-2.569-.08-3.882-.08h-25.518c-39.462 0-71.451 31.864-71.451 71.17v84.825c0-30.24 12.414-51.137 32.547-64.565z"
                    fill="#3d5959"/>
            <path
                    d="m312.394 350.47h-48.242v1c-3.411 25.824-25.788 45.162-52.512 45.162-26.723 0-49.1-19.338-52.512-45.162v-1h-77.858c-27.887 0-50.576 22.135-50.576 49.34v72.938c0 3.619 2.979 6.554 6.653 6.554h274.973c-15.479-17.048-24.919-39.633-24.919-64.375-.001-24.78 9.469-47.4 24.993-64.457z"
                    fill="#fda613"/>
            <path
                    d="m73.658 472.749v-72.939c0-27.206 22.689-49.34 50.576-49.34h-42.964c-27.887 0-50.576 22.135-50.576 49.34v72.938c0 3.619 2.979 6.554 6.653 6.554h42.965c-3.675.001-6.654-2.935-6.654-6.553z"
                    fill="#fa8701"/>
            <path
                    d="m243.561 316.234c-6.032 1.114-12.253 1.704-18.612 1.704h-26.62c-6.358 0-12.578-.59-18.61-1.704v34.235h-21.72c2.924 26.517 25.819 47.162 53.641 47.162 27.821 0 50.718-20.645 53.64-47.162h-21.718v-34.235z"
                    fill="#ffaf9d"/>
            <path
                    d="m198.329 317.939c-6.358 0-12.578-.59-18.61-1.704v34.235h-21.72c1.251 11.352 6.172 21.621 13.565 29.662h33.08c2.846 0 5.151-2.307 5.151-5.151v-57.042z"
                    fill="#f69380"/>
            <path
                    d="m98.385 220.331v-50.708h-16.572c-11.594 0-20.998 9.089-20.998 20.299v24.574c0 11.211 9.404 20.299 20.998 20.299h17.671c-.721-4.722-1.099-9.55-1.099-14.464z"
                    fill="#ffcdbe"/>
            <path
                    d="m341.469 169.623h-16.575v50.708c0 4.913-.378 9.742-1.099 14.463h17.674c11.598 0 20.995-9.088 20.995-20.299v-24.574c0-11.21-9.398-20.298-20.995-20.298z"
                    fill="#ffaf9d"/>
            <path
                    d="m211.64 70.628c-63.103 0-114.255 22.907-114.255 84.306v65.398c0 54.458 45.194 98.607 100.944 98.607h26.62c55.751 0 100.944-44.15 100.944-98.607v-65.398c.001-61.399-51.153-84.306-114.253-84.306z"
                    fill="#ffcdbe"/>
            <path
                    d="m129.48 220.331v-65.398c0-56.098 42.704-80.06 98.208-83.779-5.245-.352-10.6-.526-16.048-.526-63.103 0-114.255 22.907-114.255 84.306v65.398c0 54.458 45.194 98.607 100.944 98.607h26.62c.916 0 1.827-.014 2.736-.037-54.483-1.418-98.205-45.007-98.205-98.571z"
                    fill="#ffaf9d"/>
            <g fill="#ab5e2e">
                <path
                        d="m222.138 220.232h-13.805c-7.684 0-13.935-6.181-13.935-13.778v-31.966c0-4.142 3.357-7.5 7.5-7.5s7.5 3.358 7.5 7.5v30.744h12.739c4.143 0 7.5 3.358 7.5 7.5.001 4.142-3.357 7.5-7.499 7.5z"/>
                <path
                        d="m150.435 194.748c-4.143 0-7.5-3.358-7.5-7.5v-22.695c0-4.142 3.357-7.5 7.5-7.5s7.5 3.358 7.5 7.5v22.695c0 4.142-3.358 7.5-7.5 7.5z"/>
                <path
                        d="m272.844 194.748c-4.143 0-7.5-3.358-7.5-7.5v-22.695c0-4.142 3.357-7.5 7.5-7.5 4.142 0 7.5 3.358 7.5 7.5v22.695c0 4.142-3.358 7.5-7.5 7.5z"/>
            </g>
            <ellipse
                    cx="383.853" cy="414.928" fill="#fd646f" rx="97.453"
                    ry="97.072"/>
            <path
                    d="m318.639 414.928c0-48.141 35.185-88.089 81.334-95.742-5.244-.87-10.628-1.329-16.119-1.329-53.821 0-97.453 43.461-97.453 97.072 0 53.61 43.632 97.072 97.453 97.072 5.491 0 10.875-.46 16.119-1.33-46.15-7.653-81.334-47.603-81.334-95.743z"
                    fill="#fc4755"/>
            <path
                    d="m412.603 463.965c-1.35 1.351-3.534 1.355-4.879.011l-24.066-24.066-24.452 24.452c-1.35 1.35-3.534 1.354-4.879.009l-19.917-19.915c-1.345-1.345-1.341-3.529.011-4.879l24.451-24.453-24.066-24.065c-1.344-1.345-1.34-3.529.01-4.88l20.29-20.289c1.352-1.351 3.535-1.355 4.88-.01l24.066 24.065 24.451-24.452c1.351-1.351 3.534-1.354 4.879-.009l19.917 19.915c1.345 1.345 1.34 3.529-.01 4.879l-24.452 24.453 24.066 24.066c1.345 1.344 1.34 3.528-.011 4.879z"
                    fill="#fff"/>
            <path
                    d="m172.225 280.704c-1.042 0-2.101-.218-3.11-.68-3.769-1.721-5.428-6.17-3.707-9.938 8.232-18.025 26.379-29.673 46.232-29.673 19.852 0 37.999 11.647 46.232 29.673 1.721 3.768.061 8.217-3.706 9.938-3.77 1.721-8.217.061-9.938-3.707-5.8-12.699-18.592-20.904-32.588-20.904-13.997 0-26.788 8.206-32.587 20.904-1.261 2.759-3.983 4.387-6.828 4.387z"
                    fill="#ab5e2e"/>
        </symbol>
        <symbol id="icon-list"
                height="100%"
                viewBox="0 0 512 512"
                width="100%"
        >
            <path
                    d="m256 0c-141.164062 0-256 114.835938-256 256s114.835938 256 256 256 256-114.835938 256-256-114.835938-256-256-256zm0 0"
                    fill="#ffc107"
            />
            <path
                    d="m368 277.332031h-90.667969v90.667969c0 11.777344-9.554687 21.332031-21.332031 21.332031s-21.332031-9.554687-21.332031-21.332031v-90.667969h-90.667969c-11.777344 0-21.332031-9.554687-21.332031-21.332031s9.554687-21.332031 21.332031-21.332031h90.667969v-90.667969c0-11.777344 9.554687-21.332031 21.332031-21.332031s21.332031 9.554687 21.332031 21.332031v90.667969h90.667969c11.777344 0 21.332031 9.554687 21.332031 21.332031s-9.554687 21.332031-21.332031 21.332031zm0 0"
                    fill="#fafafa"
            />
        </symbol>
        <symbol id="icon-remove"
                height="100%"
                viewBox="-64 0 512 512"
                width="100%"
        >
            <path
                    d="m256 80h-32v-48h-64v48h-32v-80h128zm0 0" fill="#62808c"/>
            <path
                    d="m304 512h-224c-26.507812 0-48-21.492188-48-48v-336h320v336c0 26.507812-21.492188 48-48 48zm0 0"
                    fill="#e76e54"/>
            <path
                    d="m384 160h-384v-64c0-17.671875 14.328125-32 32-32h320c17.671875 0 32 14.328125 32 32zm0 0"
                    fill="#77959e"/>
            <path
                    d="m260 260c-6.246094-6.246094-16.375-6.246094-22.625 0l-41.375 41.375-41.375-41.375c-6.25-6.246094-16.378906-6.246094-22.625 0s-6.246094 16.375 0 22.625l41.375 41.375-41.375 41.375c-6.246094 6.25-6.246094 16.378906 0 22.625s16.375 6.246094 22.625 0l41.375-41.375 41.375 41.375c6.25 6.246094 16.378906 6.246094 22.625 0s6.246094-16.375 0-22.625l-41.375-41.375 41.375-41.375c6.246094-6.25 6.246094-16.378906 0-22.625zm0 0"
                    fill="#fff"/>
        </symbol>
        <symbol id="icon-menu"
                height="100%"
                width="100%"
                viewBox="0 0 54.981 54.981"
                style="enable-background:new 0 0 54.981 54.981;"
                xml:space="preserve"
        >
<g>
	<g>
		<path
                style="fill:#3ABCA7;"
                d="M43.992,52H8.72c-4.619,0-8.364-3.745-8.364-8.364V8.364C0.356,3.745,4.101,0,8.72,0h35.272    c4.619,0,8.364,3.745,8.364,8.364v35.272C52.356,48.255,48.611,52,43.992,52z"
        />
        <path
                style="fill:#FFFFFF;"
                d="M44.356,14h-18c-0.552,0-1-0.447-1-1s0.448-1,1-1h18c0.552,0,1,0.447,1,1S44.908,14,44.356,14z"
        />
        <path
                style="fill:#FFFFFF;"
                d="M44.356,28h-18c-0.552,0-1-0.447-1-1s0.448-1,1-1h18c0.552,0,1,0.447,1,1S44.908,28,44.356,28z"
        />
        <path
                style="fill:#FFFFFF;"
                d="M44.356,42h-18c-0.552,0-1-0.447-1-1s0.448-1,1-1h18c0.552,0,1,0.447,1,1S44.908,42,44.356,42z"
        />
        <path
                style="fill:#FFFFFF;"
                d="M12.427,17c-0.209,0-0.42-0.065-0.6-0.2l-4.571-3.429c-0.442-0.331-0.531-0.958-0.2-1.399    c0.331-0.441,0.958-0.531,1.4-0.2l3.822,2.866l6.248-7.288c0.359-0.42,0.991-0.468,1.41-0.108c0.419,0.359,0.468,0.99,0.108,1.409    l-6.857,8C12.989,16.881,12.709,17,12.427,17z"
        />
        <path
                style="fill:#FFFFFF;"
                d="M12.427,31c-0.209,0-0.42-0.065-0.6-0.2l-4.571-3.429c-0.442-0.331-0.531-0.958-0.2-1.399    c0.331-0.441,0.958-0.531,1.4-0.2l3.822,2.866l6.248-7.288c0.359-0.42,0.991-0.468,1.41-0.108c0.419,0.359,0.468,0.99,0.108,1.409    l-6.857,8C12.989,30.881,12.709,31,12.427,31z"
        />
        <path
                style="fill:#FFFFFF;"
                d="M12.427,45.999c-0.209,0-0.42-0.065-0.6-0.2L7.256,42.37c-0.442-0.331-0.531-0.958-0.2-1.399    c0.331-0.441,0.958-0.531,1.4-0.2l3.822,2.866l6.248-7.287c0.359-0.421,0.991-0.469,1.41-0.108    c0.419,0.359,0.468,0.99,0.108,1.409l-6.857,7.999C12.989,45.88,12.709,45.999,12.427,45.999z"
        />
	</g>
    <g>
		<polygon
                style="fill:#EDDCC7;"
                points="33.192,45.489 33.184,45.496 31.196,52.786 35.843,48.139   "
        />
        <path
                style="fill:#D75A4A;"
                d="M52.442,31.54l-1.247-1.247c-0.775-0.775-2.032-0.775-2.807,0l-3.582,3.582l2.651,2.651    L52.442,31.54z"
        />

        <rect
                x="38.45"
                y="32.795"
                transform="matrix(0.7071 0.7071 -0.7071 0.7071 40.8071 -16.5028)"
                style="fill:#F29C21;"
                width="3.749"
                height="16.424"
        />
        <polygon
                style="fill:#D6C4B1;"
                points="38.841,51.153 38.849,51.145 35.843,48.139 31.196,52.786 31.063,53.274   "
        />
        <path
                style="fill:#A34740;"
                d="M50.462,39.532l3.582-3.582c0.775-0.775,0.775-2.032,0-2.807l-1.602-1.602l-4.985,4.985    L50.462,39.532z"
        />

        <rect
                x="41.027"
                y="35.623"
                transform="matrix(-0.7071 -0.7071 0.7071 -0.7071 42.6691 105.3453)"
                style="fill:#E18C25;"
                width="4.251"
                height="16.424"
        />
        <path
                style="fill:#5E5E5E;"
                d="M30.356,54.981c-0.256,0-0.512-0.098-0.707-0.293c-0.391-0.391-0.391-1.023,0-1.414l2.207-2.207    c0.391-0.391,1.023-0.391,1.414,0s0.391,1.023,0,1.414l-2.207,2.207C30.868,54.884,30.612,54.981,30.356,54.981z"
        />
	</g>
</g>
            <g>
</g>
            <g>
</g>
            <g>
</g>
            <g>
</g>
            <g>
</g>
            <g>
</g>
            <g>
</g>
            <g>
</g>
            <g>
</g>
            <g>
</g>
            <g>
</g>
            <g>
</g>
            <g>
</g>
            <g>
</g>
            <g>
</g>
</symbol>
    </defs>
</svg>


